# xmcd
#
# Track frame offsets:
#	150
#	24629
#	39215
#	61503
#	82508
#	100306
#	117611
#	137812
#	157642
#	182360
#	203872
#	222137
#
# Disc length: 3151 seconds
#
# Revision: 1
# Processed by: cddbd v1.5.2PL0 Copyright (c) Steve Scherf et al.
# Submitted via: audiograbber 1.83.01
#
DISCID=8b0c4d0c
DTITLE=K-Ci and Jo Jo - Ballads
DYEAR=2013
DGENRE=Soul
TTITLE0=All my life
TTITLE1=Don`t rush (Take love slowly)
TTITLE2=How could you
TTITLE3=Tell me it`s real
TTITLE4=I wanna make love to you
TTITLE5=How long must I cry
TTITLE6=Wanna do you right
TTITLE7=Crazy
TTITLE8=All the things I should have known
TTITLE9=Down for life
TTITLE10=This very moment
TTITLE11=Love me carefully
EXTD=
EXTT0=
EXTT1=
EXTT2=
EXTT3=
EXTT4=
EXTT5=
EXTT6=
EXTT7=
EXTT8=
EXTT9=
EXTT10=
EXTT11=
PLAYORDER=
